<svg width="268" height="268" viewBox="0 0 268 268" fill="none" xmlns="http://www.w3.org/2000/svg">
<rect x="204.11" y="69.5443" width="63.3249" height="21.4852" rx="10.7426" fill="#F5C857" stroke="black" stroke-width="1.1308"/>
<rect x="0.565401" y="69.5443" width="63.3249" height="21.4852" rx="10.7426" fill="#F5C857" stroke="black" stroke-width="1.1308"/>
<rect x="198.456" y="0.565401" width="63.3249" height="21.4852" rx="10.7426" transform="rotate(90 198.456 0.565401)" fill="#F5C857" stroke="black" stroke-width="1.1308"/>
<rect x="198.456" y="204.11" width="63.3249" height="21.4852" rx="10.7426" transform="rotate(90 198.456 204.11)" fill="#F5C857" stroke="black" stroke-width="1.1308"/>
<rect x="204.11" y="105.73" width="63.3249" height="21.4852" rx="10.7426" fill="#F5C857" stroke="black" stroke-width="1.1308"/>
<rect x="0.565401" y="105.73" width="63.3249" height="21.4852" rx="10.7426" fill="#F5C857" stroke="black" stroke-width="1.1308"/>
<rect x="162.27" y="0.565401" width="63.3249" height="21.4852" rx="10.7426" transform="rotate(90 162.27 0.565401)" fill="#F5C857" stroke="black" stroke-width="1.1308"/>
<rect x="162.27" y="204.11" width="63.3249" height="21.4852" rx="10.7426" transform="rotate(90 162.27 204.11)" fill="#F5C857" stroke="black" stroke-width="1.1308"/>
<rect x="204.11" y="141.916" width="63.3249" height="21.4852" rx="10.7426" fill="#F5C857" stroke="black" stroke-width="1.1308"/>
<rect x="0.565401" y="141.916" width="63.3249" height="21.4852" rx="10.7426" fill="#F5C857" stroke="black" stroke-width="1.1308"/>
<rect x="126.084" y="0.565401" width="63.3249" height="21.4852" rx="10.7426" transform="rotate(90 126.084 0.565401)" fill="#F5C857" stroke="black" stroke-width="1.1308"/>
<rect x="126.084" y="204.11" width="63.3249" height="21.4852" rx="10.7426" transform="rotate(90 126.084 204.11)" fill="#F5C857" stroke="black" stroke-width="1.1308"/>
<rect x="204.11" y="178.101" width="63.3249" height="21.4852" rx="10.7426" fill="#F5C857" stroke="black" stroke-width="1.1308"/>
<rect x="0.565401" y="178.101" width="63.3249" height="21.4852" rx="10.7426" fill="#F5C857" stroke="black" stroke-width="1.1308"/>
<rect x="89.8987" y="0.565401" width="63.3249" height="21.4852" rx="10.7426" transform="rotate(90 89.8987 0.565401)" fill="#F5C857" stroke="black" stroke-width="1.1308"/>
<rect x="89.8987" y="204.11" width="63.3249" height="21.4852" rx="10.7426" transform="rotate(90 89.8987 204.11)" fill="#F5C857" stroke="black" stroke-width="1.1308"/>
<rect x="32.2279" y="33.3587" width="202.413" height="202.413" rx="20.3544" fill="#0C2B4E" stroke="black" stroke-width="1.1308"/>
<rect x="46.9283" y="46.9283" width="174.143" height="174.143" rx="9.04641" fill="#F4F4F4" stroke="black" stroke-width="1.1308"/>
<path d="M186.016 178.101H221.072V212.591C221.072 217.275 217.275 221.072 212.591 221.072H176.97V187.147C176.971 182.151 181.021 178.102 186.016 178.101Z" fill="#0C2B4E" stroke="black" stroke-width="1.1308"/>
<path d="M192.236 180.363H220.218L199.763 199.742L199.758 199.747L179.232 220.272V193.367C179.232 191.252 179.233 189.694 179.317 188.456C179.401 187.223 179.567 186.349 179.878 185.598C180.738 183.52 182.389 181.869 184.467 181.008C185.218 180.697 186.092 180.532 187.325 180.448C188.563 180.363 190.121 180.363 192.236 180.363Z" fill="#D9D9D9" stroke="black" stroke-width="1.1308"/>
<path d="M82.2841 125.336C88.4413 125.448 89.8966 123.769 89.8966 118.059V104.289C89.8966 85.4818 99.6362 82.5711 117.324 82.5711H120.347V97.9082H117.324C112.958 97.9082 108.928 100.147 108.928 108.319V120.97C108.928 127.351 106.577 130.709 101.092 132.948V133.172C106.577 135.411 108.928 138.77 108.928 145.263V157.913C108.928 166.533 112.958 168.772 117.324 168.772H120.347V184.109H117.324C99.6362 184.109 89.8966 180.751 89.8966 161.943V148.173C89.8966 142.464 88.4413 140.785 82.2841 140.785V125.336ZM184.982 125.336V140.785C178.825 140.785 177.369 142.464 177.369 148.173V161.943C177.369 180.751 167.63 184.109 149.942 184.109H146.919V168.772H149.942C154.308 168.772 158.338 166.533 158.338 157.913V145.263C158.338 138.77 160.689 135.411 166.174 133.172V132.948C160.689 130.709 158.338 127.351 158.338 120.97V108.319C158.338 100.147 154.308 97.9082 149.942 97.9082H146.919V82.5711H149.942C167.63 82.5711 177.369 85.4818 177.369 104.289V118.059C177.369 123.769 178.825 125.448 184.982 125.336Z" fill="#0C2B4E"/>
<line x1="68.4135" y1="46.3629" x2="68.4136" y2="221.637" stroke="black" stroke-width="1.1308"/>
<line x1="221.637" y1="69.5443" x2="46.3629" y2="69.5443" stroke="black" stroke-width="1.1308"/>
</svg>
