<svg width="274" height="63" viewBox="0 0 274 63" fill="none" xmlns="http://www.w3.org/2000/svg">
<path d="M72.9676 42.3515V20.0948H83.7691C88.4072 20.0948 91.3021 22.5228 91.3021 27.192C91.3021 31.8613 88.4072 34.2893 83.7691 34.2893H78.5707V42.3515H72.9676ZM78.5707 24.6706V29.7134H82.5862C84.5162 29.7134 85.699 29.0597 85.699 27.192C85.699 25.3243 84.5162 24.6706 82.5862 24.6706H78.5707ZM95.4529 24.515C94.0521 24.515 92.9626 23.7679 92.9626 22.3049C92.9626 20.873 94.0521 20.0948 95.4529 20.0948C96.8537 20.0948 97.9431 20.873 97.9431 22.3049C97.9431 23.7679 96.8537 24.515 95.4529 24.515ZM92.9626 26.4138H97.9431V42.3515H92.9626V26.4138ZM110.652 25.9158C113.734 25.9158 115.82 27.9391 115.82 31.5811V42.3515H110.839V33.1687C110.839 30.7718 109.999 29.9624 108.349 29.9624C106.45 29.9624 105.36 30.9274 105.36 33.1375V42.3515H100.38V26.4138H105.36V28.7173H105.423C106.263 27.2543 107.82 25.9158 110.652 25.9158ZM131.549 37.7134H123.923L122.491 42.3515H116.888L124.95 20.0948H130.553L138.584 42.3515H132.981L131.549 37.7134ZM125.199 33.4488H130.304L127.783 25.231H127.72L125.199 33.4488ZM150.11 25.9158C153.191 25.9158 155.277 27.9391 155.277 31.5811V42.3515H150.297V33.1687C150.297 30.7718 149.456 29.9624 147.806 29.9624C145.907 29.9624 144.818 30.9274 144.818 33.1375V42.3515H139.837V26.4138H144.818V28.7173H144.88C145.721 27.2543 147.277 25.9158 150.11 25.9158ZM168.485 20.0948H173.466V42.3515H168.485V40.764H168.423C167.8 41.6044 166.119 42.8496 163.816 42.8496C159.582 42.8496 156.874 39.6122 156.874 34.3827C156.874 29.1531 159.582 25.9158 163.816 25.9158C166.119 25.9158 167.8 27.1609 168.423 28.0014H168.485V20.0948ZM165.123 39.1142C167.147 39.1142 168.392 37.4955 168.392 34.3827C168.392 31.2698 167.147 29.6512 165.123 29.6512C163.1 29.6512 161.855 31.2698 161.855 34.3827C161.855 37.4955 163.1 39.1142 165.123 39.1142ZM176.202 42.3515V20.0948H187.003C191.641 20.0948 194.536 22.5228 194.536 27.192C194.536 31.8613 191.641 34.2893 187.003 34.2893H181.805V42.3515H176.202ZM181.805 24.6706V29.7134H185.82C187.75 29.7134 188.933 29.0597 188.933 27.192C188.933 25.3243 187.75 24.6706 185.82 24.6706H181.805ZM204.807 30.834C204.807 29.9002 204.153 29.3399 202.784 29.3399C200.978 29.3399 200.107 30.0247 199.951 31.55H195.282C195.437 28.4994 197.616 25.9158 202.815 25.9158C207.297 25.9158 209.788 27.659 209.788 32.6706V39.9858C209.788 40.8262 210.099 41.1686 210.721 41.1686V42.3515C209.725 42.725 208.823 42.8496 207.826 42.8496C205.585 42.8496 204.963 41.7912 204.963 40.6706H204.9C203.873 41.8534 202.005 42.8496 199.889 42.8496C196.527 42.8496 194.659 40.9507 194.659 38.2737C194.659 35.0986 196.994 33.6356 200.729 32.8885C202.784 32.4838 204.807 32.1726 204.807 30.834ZM201.632 39.4254C203.78 39.4254 204.807 38.0558 204.807 36.5305V34.6006C204.184 34.8496 203.406 35.0675 202.254 35.3165C200.293 35.7523 199.64 36.5616 199.64 37.5577C199.64 38.8651 200.418 39.4254 201.632 39.4254ZM222.262 25.9158C226.495 25.9158 229.203 29.1531 229.203 34.3827C229.203 39.6122 226.495 42.8496 222.262 42.8496C219.958 42.8496 218.277 41.6044 217.655 40.764H217.592V47.8612H212.612V26.4138H217.592V28.0014H217.655C218.277 27.1609 219.958 25.9158 222.262 25.9158ZM220.954 39.1142C222.978 39.1142 224.223 37.4955 224.223 34.3827C224.223 31.2698 222.978 29.6512 220.954 29.6512C218.931 29.6512 217.686 31.2698 217.686 34.3827C217.686 37.4955 218.931 39.1142 220.954 39.1142ZM238.722 39.1142C240.434 39.1142 241.244 38.3048 241.555 37.5266H246.504C245.633 40.7328 243.142 42.8496 238.816 42.8496C233.524 42.8496 230.318 39.3632 230.318 34.3827C230.318 29.5267 233.462 25.9158 238.535 25.9158C243.983 25.9158 246.753 29.9002 246.753 35.6901H235.298C235.298 37.9313 236.948 39.1142 238.722 39.1142ZM238.535 29.3399C236.637 29.3399 235.298 30.4605 235.298 32.6706H241.773C241.773 30.4605 240.434 29.3399 238.535 29.3399ZM257.386 26.1337C257.822 26.1337 258.195 26.1337 258.755 26.2582V30.6161H258.693C256.141 30.1492 253.433 31.55 253.433 34.943V42.3515H248.452V26.4138H253.433V29.0286H253.495C254.273 27.2543 255.643 26.1337 257.386 26.1337Z" fill="#0C2B4E"/>
<rect x="47.5816" y="16.2113" width="14.767" height="5.01303" rx="2.50651" fill="#F5C857" stroke="black" stroke-width="0.259402"/>
<rect x="0.129701" y="16.2113" width="14.767" height="5.01303" rx="2.50651" fill="#F5C857" stroke="black" stroke-width="0.259402"/>
<rect x="46.2682" y="0.129701" width="14.767" height="5.01303" rx="2.50651" transform="rotate(90 46.2682 0.129701)" fill="#F5C857" stroke="black" stroke-width="0.259402"/>
<rect x="46.2682" y="47.5826" width="14.767" height="5.01303" rx="2.50651" transform="rotate(90 46.2682 47.5826)" fill="#F5C857" stroke="black" stroke-width="0.259402"/>
<rect x="47.5816" y="24.6431" width="14.767" height="5.01303" rx="2.50651" fill="#F5C857" stroke="black" stroke-width="0.259402"/>
<rect x="0.129701" y="24.6431" width="14.767" height="5.01303" rx="2.50651" fill="#F5C857" stroke="black" stroke-width="0.259402"/>
<rect x="37.8304" y="0.129701" width="14.767" height="5.01303" rx="2.50651" transform="rotate(90 37.8304 0.129701)" fill="#F5C857" stroke="black" stroke-width="0.259402"/>
<rect x="37.8304" y="47.5826" width="14.767" height="5.01303" rx="2.50651" transform="rotate(90 37.8304 47.5826)" fill="#F5C857" stroke="black" stroke-width="0.259402"/>
<rect x="47.5816" y="33.0809" width="14.767" height="5.01303" rx="2.50651" fill="#F5C857" stroke="black" stroke-width="0.259402"/>
<rect x="0.129701" y="33.0809" width="14.767" height="5.01303" rx="2.50651" fill="#F5C857" stroke="black" stroke-width="0.259402"/>
<rect x="29.3966" y="0.129701" width="14.767" height="5.01303" rx="2.50651" transform="rotate(90 29.3966 0.129701)" fill="#F5C857" stroke="black" stroke-width="0.259402"/>
<rect x="29.3966" y="47.5826" width="14.767" height="5.01303" rx="2.50651" transform="rotate(90 29.3966 47.5826)" fill="#F5C857" stroke="black" stroke-width="0.259402"/>
<rect x="47.5816" y="41.5167" width="14.767" height="5.01303" rx="2.50651" fill="#F5C857" stroke="black" stroke-width="0.259402"/>
<rect x="0.129701" y="41.5167" width="14.767" height="5.01303" rx="2.50651" fill="#F5C857" stroke="black" stroke-width="0.259402"/>
<rect x="20.9598" y="0.129701" width="14.767" height="5.01303" rx="2.50651" transform="rotate(90 20.9598 0.129701)" fill="#F5C857" stroke="black" stroke-width="0.259402"/>
<rect x="20.9598" y="47.5826" width="14.767" height="5.01303" rx="2.50651" transform="rotate(90 20.9598 47.5826)" fill="#F5C857" stroke="black" stroke-width="0.259402"/>
<rect x="7.51152" y="7.77551" width="47.1925" height="47.1925" rx="4.66924" fill="#0C2B4E" stroke="black" stroke-width="0.259402"/>
<rect x="10.9374" y="10.9374" width="40.6019" height="40.6019" rx="2.07522" fill="#F4F4F4" stroke="black" stroke-width="0.259402"/>
<path d="M43.3301 41.5169H51.5401V49.5931C51.54 50.6675 50.6692 51.5383 49.5947 51.5384H41.2549V43.5921C41.2549 42.446 42.184 41.5169 43.3301 41.5169Z" fill="#0C2B4E" stroke="black" stroke-width="0.259402"/>
<path d="M44.7653 42.0449H51.3444L46.5719 46.5664L46.569 46.5684L41.7819 51.3555V45.0283C41.7819 44.5431 41.782 44.1853 41.8014 43.9014C41.8207 43.6188 41.8581 43.4182 41.9293 43.2461C42.1268 42.7694 42.5063 42.3898 42.9831 42.1924C43.1552 42.1212 43.3558 42.0837 43.6383 42.0645C43.9223 42.0451 44.2801 42.0449 44.7653 42.0449Z" fill="#D9D9D9" stroke="black" stroke-width="0.259402"/>
<path d="M19.3713 28.7613C20.7837 28.787 21.1176 28.4018 21.1176 27.0921V23.9333C21.1176 19.6189 23.3518 18.9512 27.4094 18.9512H28.1028V22.4695H27.4094C26.4078 22.4695 25.4833 22.9831 25.4833 24.8578V27.7598C25.4833 29.2236 24.944 29.994 23.6857 30.5076V30.559C24.944 31.0726 25.4833 31.843 25.4833 33.3325V36.2344C25.4833 38.2118 26.4078 38.7255 27.4094 38.7255H28.1028V42.2437H27.4094C23.3518 42.2437 21.1176 41.4733 21.1176 37.1589V34.0002C21.1176 32.6905 20.7837 32.3053 19.3713 32.3053V28.7613ZM42.9298 28.7613V32.3053C41.5174 32.3053 41.1835 32.6905 41.1835 34.0002V37.1589C41.1835 41.4733 38.9493 42.2437 34.8917 42.2437H34.1984V38.7255H34.8917C35.8933 38.7255 36.8178 38.2118 36.8178 36.2344V33.3325C36.8178 31.843 37.3571 31.0726 38.6155 30.559V30.5076C37.3571 29.994 36.8178 29.2236 36.8178 27.7598V24.8578C36.8178 22.9831 35.8933 22.4695 34.8917 22.4695H34.1984V18.9512H34.8917C38.9493 18.9512 41.1835 19.6189 41.1835 23.9333V27.0921C41.1835 28.4018 41.5174 28.787 42.9298 28.7613Z" fill="#0C2B4E"/>
<line x1="15.9463" y1="10.8077" x2="15.9463" y2="51.6691" stroke="black" stroke-width="0.259402"/>
<line x1="51.6708" y1="16.2113" x2="10.8094" y2="16.2113" stroke="black" stroke-width="0.259402"/>
</svg>
