<svg width="274" height="63" viewBox="0 0 274 63" fill="none" xmlns="http://www.w3.org/2000/svg">
<path d="M72.9676 42.3516V20.0948H83.7691C88.4072 20.0948 91.3021 22.5229 91.3021 27.1921C91.3021 31.8613 88.4072 34.2893 83.7691 34.2893H78.5707V42.3516H72.9676ZM78.5707 24.6707V29.7135H82.5862C84.5162 29.7135 85.699 29.0598 85.699 27.1921C85.699 25.3244 84.5162 24.6707 82.5862 24.6707H78.5707ZM95.4529 24.5151C94.0521 24.5151 92.9626 23.768 92.9626 22.305C92.9626 20.8731 94.0521 20.0948 95.4529 20.0948C96.8537 20.0948 97.9431 20.8731 97.9431 22.305C97.9431 23.768 96.8537 24.5151 95.4529 24.5151ZM92.9626 26.4139H97.9431V42.3516H92.9626V26.4139ZM110.652 25.9158C113.734 25.9158 115.82 27.9392 115.82 31.5812V42.3516H110.839V33.1687C110.839 30.7718 109.999 29.9625 108.349 29.9625C106.45 29.9625 105.36 30.9275 105.36 33.1376V42.3516H100.38V26.4139H105.36V28.7174H105.423C106.263 27.2544 107.82 25.9158 110.652 25.9158ZM131.549 37.7134H123.923L122.491 42.3516H116.888L124.95 20.0948H130.553L138.584 42.3516H132.981L131.549 37.7134ZM125.199 33.4489H130.304L127.783 25.231H127.72L125.199 33.4489ZM150.11 25.9158C153.191 25.9158 155.277 27.9392 155.277 31.5812V42.3516H150.297V33.1687C150.297 30.7718 149.456 29.9625 147.806 29.9625C145.907 29.9625 144.818 30.9275 144.818 33.1376V42.3516H139.837V26.4139H144.818V28.7174H144.88C145.721 27.2544 147.277 25.9158 150.11 25.9158ZM168.485 20.0948H173.466V42.3516H168.485V40.764H168.423C167.8 41.6045 166.119 42.8496 163.816 42.8496C159.582 42.8496 156.874 39.6123 156.874 34.3827C156.874 29.1532 159.582 25.9158 163.816 25.9158C166.119 25.9158 167.8 27.161 168.423 28.0014H168.485V20.0948ZM165.123 39.1142C167.147 39.1142 168.392 37.4956 168.392 34.3827C168.392 31.2699 167.147 29.6512 165.123 29.6512C163.1 29.6512 161.855 31.2699 161.855 34.3827C161.855 37.4956 163.1 39.1142 165.123 39.1142ZM176.202 42.3516V20.0948H187.003C191.641 20.0948 194.536 22.5229 194.536 27.1921C194.536 31.8613 191.641 34.2893 187.003 34.2893H181.805V42.3516H176.202ZM181.805 24.6707V29.7135H185.82C187.75 29.7135 188.933 29.0598 188.933 27.1921C188.933 25.3244 187.75 24.6707 185.82 24.6707H181.805ZM204.807 30.8341C204.807 29.9003 204.153 29.3399 202.784 29.3399C200.978 29.3399 200.107 30.0248 199.951 31.5501H195.282C195.437 28.4995 197.616 25.9158 202.815 25.9158C207.297 25.9158 209.788 27.659 209.788 32.6707V39.9858C209.788 40.8263 210.099 41.1687 210.721 41.1687V42.3516C209.725 42.7251 208.823 42.8496 207.826 42.8496C205.585 42.8496 204.963 41.7913 204.963 40.6706H204.9C203.873 41.8535 202.005 42.8496 199.889 42.8496C196.527 42.8496 194.659 40.9508 194.659 38.2738C194.659 35.0987 196.994 33.6356 200.729 32.8886C202.784 32.4839 204.807 32.1726 204.807 30.8341ZM201.632 39.4255C203.78 39.4255 204.807 38.0559 204.807 36.5306V34.6006C204.184 34.8496 203.406 35.0675 202.254 35.3166C200.293 35.7524 199.64 36.5617 199.64 37.5578C199.64 38.8652 200.418 39.4255 201.632 39.4255ZM222.262 25.9158C226.495 25.9158 229.203 29.1532 229.203 34.3827C229.203 39.6123 226.495 42.8496 222.262 42.8496C219.958 42.8496 218.277 41.6045 217.655 40.764H217.592V47.8613H212.612V26.4139H217.592V28.0014H217.655C218.277 27.161 219.958 25.9158 222.262 25.9158ZM220.954 39.1142C222.978 39.1142 224.223 37.4956 224.223 34.3827C224.223 31.2699 222.978 29.6512 220.954 29.6512C218.931 29.6512 217.686 31.2699 217.686 34.3827C217.686 37.4956 218.931 39.1142 220.954 39.1142ZM238.722 39.1142C240.434 39.1142 241.244 38.3049 241.555 37.5267H246.504C245.633 40.7329 243.142 42.8496 238.816 42.8496C233.524 42.8496 230.318 39.3632 230.318 34.3827C230.318 29.5267 233.462 25.9158 238.535 25.9158C243.983 25.9158 246.753 29.9003 246.753 35.6901H235.298C235.298 37.9313 236.948 39.1142 238.722 39.1142ZM238.535 29.3399C236.637 29.3399 235.298 30.4606 235.298 32.6707H241.773C241.773 30.4606 240.434 29.3399 238.535 29.3399ZM257.386 26.1337C257.822 26.1337 258.195 26.1337 258.755 26.2582V30.6162H258.693C256.141 30.1493 253.433 31.5501 253.433 34.943V42.3516H248.452V26.4139H253.433V29.0287H253.495C254.273 27.2544 255.643 26.1337 257.386 26.1337Z" fill="#F4F4F4"/>
<rect x="47.5816" y="16.2112" width="14.767" height="5.01303" rx="2.50651" fill="#F5C857" stroke="black" stroke-width="0.259402"/>
<rect x="0.129701" y="16.2112" width="14.767" height="5.01303" rx="2.50651" fill="#F5C857" stroke="black" stroke-width="0.259402"/>
<rect x="46.2682" y="0.129701" width="14.767" height="5.01303" rx="2.50651" transform="rotate(90 46.2682 0.129701)" fill="#F5C857" stroke="black" stroke-width="0.259402"/>
<rect x="46.2682" y="47.5826" width="14.767" height="5.01303" rx="2.50651" transform="rotate(90 46.2682 47.5826)" fill="#F5C857" stroke="black" stroke-width="0.259402"/>
<rect x="47.5816" y="24.6431" width="14.767" height="5.01303" rx="2.50651" fill="#F5C857" stroke="black" stroke-width="0.259402"/>
<rect x="0.129701" y="24.6431" width="14.767" height="5.01303" rx="2.50651" fill="#F5C857" stroke="black" stroke-width="0.259402"/>
<rect x="37.8304" y="0.129701" width="14.767" height="5.01303" rx="2.50651" transform="rotate(90 37.8304 0.129701)" fill="#F5C857" stroke="black" stroke-width="0.259402"/>
<rect x="37.8304" y="47.5826" width="14.767" height="5.01303" rx="2.50651" transform="rotate(90 37.8304 47.5826)" fill="#F5C857" stroke="black" stroke-width="0.259402"/>
<rect x="47.5816" y="33.0809" width="14.767" height="5.01303" rx="2.50651" fill="#F5C857" stroke="black" stroke-width="0.259402"/>
<rect x="0.129701" y="33.0809" width="14.767" height="5.01303" rx="2.50651" fill="#F5C857" stroke="black" stroke-width="0.259402"/>
<rect x="29.3966" y="0.129701" width="14.767" height="5.01303" rx="2.50651" transform="rotate(90 29.3966 0.129701)" fill="#F5C857" stroke="black" stroke-width="0.259402"/>
<rect x="29.3966" y="47.5826" width="14.767" height="5.01303" rx="2.50651" transform="rotate(90 29.3966 47.5826)" fill="#F5C857" stroke="black" stroke-width="0.259402"/>
<rect x="47.5816" y="41.5167" width="14.767" height="5.01303" rx="2.50651" fill="#F5C857" stroke="black" stroke-width="0.259402"/>
<rect x="0.129701" y="41.5167" width="14.767" height="5.01303" rx="2.50651" fill="#F5C857" stroke="black" stroke-width="0.259402"/>
<rect x="20.9598" y="0.129701" width="14.767" height="5.01303" rx="2.50651" transform="rotate(90 20.9598 0.129701)" fill="#F5C857" stroke="black" stroke-width="0.259402"/>
<rect x="20.9598" y="47.5826" width="14.767" height="5.01303" rx="2.50651" transform="rotate(90 20.9598 47.5826)" fill="#F5C857" stroke="black" stroke-width="0.259402"/>
<rect x="7.51152" y="7.77545" width="47.1925" height="47.1925" rx="4.66924" fill="#0C2B4E" stroke="black" stroke-width="0.259402"/>
<rect x="10.9374" y="10.9373" width="40.6019" height="40.6019" rx="2.07522" fill="#F4F4F4" stroke="black" stroke-width="0.259402"/>
<path d="M43.3301 41.5168H51.5401V49.593C51.54 50.6675 50.6692 51.5383 49.5947 51.5383H41.2549V43.592C41.2549 42.4459 42.184 41.5168 43.3301 41.5168Z" fill="#0C2B4E" stroke="black" stroke-width="0.259402"/>
<path d="M44.7653 42.0449H51.3444L46.5719 46.5664L46.569 46.5684L41.7819 51.3555V45.0283C41.7819 44.5431 41.782 44.1853 41.8014 43.9014C41.8207 43.6188 41.8581 43.4182 41.9293 43.2461C42.1268 42.7694 42.5063 42.3898 42.9831 42.1924C43.1552 42.1212 43.3558 42.0837 43.6383 42.0645C43.9223 42.0451 44.2801 42.0449 44.7653 42.0449Z" fill="#D9D9D9" stroke="black" stroke-width="0.259402"/>
<path d="M19.3713 28.7614C20.7837 28.7871 21.1176 28.4019 21.1176 27.0922V23.9334C21.1176 19.6191 23.3518 18.9514 27.4094 18.9514H28.1028V22.4696H27.4094C26.4078 22.4696 25.4833 22.9832 25.4833 24.8579V27.7599C25.4833 29.2237 24.944 29.9941 23.6857 30.5077V30.5591C24.944 31.0727 25.4833 31.8431 25.4833 33.3326V36.2345C25.4833 38.212 26.4078 38.7256 27.4094 38.7256H28.1028V42.2439H27.4094C23.3518 42.2439 21.1176 41.4734 21.1176 37.1591V34.0003C21.1176 32.6906 20.7837 32.3054 19.3713 32.3054V28.7614ZM42.9298 28.7614V32.3054C41.5174 32.3054 41.1835 32.6906 41.1835 34.0003V37.1591C41.1835 41.4734 38.9493 42.2439 34.8917 42.2439H34.1984V38.7256H34.8917C35.8933 38.7256 36.8178 38.212 36.8178 36.2345V33.3326C36.8178 31.8431 37.3571 31.0727 38.6155 30.5591V30.5077C37.3571 29.9941 36.8178 29.2237 36.8178 27.7599V24.8579C36.8178 22.9832 35.8933 22.4696 34.8917 22.4696H34.1984V18.9514H34.8917C38.9493 18.9514 41.1835 19.6191 41.1835 23.9334V27.0922C41.1835 28.4019 41.5174 28.7871 42.9298 28.7614Z" fill="#0C2B4E"/>
<line x1="15.9463" y1="10.8076" x2="15.9463" y2="51.669" stroke="black" stroke-width="0.259402"/>
<line x1="51.6708" y1="16.2112" x2="10.8094" y2="16.2112" stroke="black" stroke-width="0.259402"/>
</svg>
